<svg width="12" height="13" viewBox="0 0 12 13" fill="none" xmlns="http://www.w3.org/2000/svg">
<path d="M11.8368 10.3765L9.49989 8.03963C9.39442 7.93416 9.25144 7.87556 9.10143 7.87556H8.71937C9.36629 7.04816 9.75069 6.00746 9.75069 4.87535C9.75069 2.18219 7.56851 0 4.87535 0C2.18219 0 0 2.18219 0 4.87535C0 7.56851 2.18219 9.75069 4.87535 9.75069C6.00746 9.75069 7.04816 9.36629 7.87556 8.71937V9.10143C7.87556 9.25144 7.93416 9.39442 8.03963 9.49989L10.3765 11.8368C10.5968 12.0571 10.9531 12.0571 11.1711 11.8368L11.8344 11.1735C12.0548 10.9531 12.0548 10.5968 11.8368 10.3765ZM4.87535 7.87556C3.2182 7.87556 1.87513 6.53484 1.87513 4.87535C1.87513 3.2182 3.21585 1.87513 4.87535 1.87513C6.5325 1.87513 7.87556 3.21585 7.87556 4.87535C7.87556 6.5325 6.53484 7.87556 4.87535 7.87556Z" fill="black"/>
</svg>
