<svg width="10" height="10" viewBox="0 0 10 10" fill="none" xmlns="http://www.w3.org/2000/svg">
<path d="M9.48785 3.3498L6.75709 2.93359L5.53677 0.347852C5.42707 0.116797 5.21308 0 4.99909 0C4.78641 0 4.57391 0.115234 4.46384 0.347852L3.24314 2.9334L0.512204 3.34922C0.0224709 3.42344 -0.173796 4.0541 0.181238 4.41543L2.15677 6.42715L1.68924 9.26855C1.62283 9.67441 1.93234 10 2.27897 10C2.37095 10 2.46554 9.97715 2.5564 9.92676L4.99947 8.58535L7.44235 9.92715C7.53302 9.97695 7.62742 9.99961 7.71902 9.99961C8.06604 9.99961 8.37611 9.67519 8.30969 9.26914L7.84272 6.42754L9.81863 4.41621C10.1738 4.05488 9.97758 3.42402 9.48785 3.3498ZM7.2166 5.75605L6.87855 6.10019L6.9584 6.58613L7.32257 8.80195L5.41718 7.75527L4.99965 7.52598L5.00021 1.33086L5.95225 3.34824L6.16083 3.79023L6.62743 3.86133L8.75856 4.18613L7.2166 5.75605Z" fill="#FFC000"/>
</svg>
