<svg width="35" height="28" viewBox="0 0 35 28" fill="none" xmlns="http://www.w3.org/2000/svg">
<path d="M11.375 19.2499C11.2443 19.2499 11.1136 19.2691 10.989 19.3095C10.2802 19.5398 9.53482 19.6874 8.75006 19.6874C7.96529 19.6874 7.21991 19.5398 6.51061 19.3095C6.38593 19.2691 6.25577 19.2499 6.12507 19.2499C2.73117 19.2499 -0.0179585 22.0105 8.83462e-05 25.4088C0.00774457 26.8449 1.18844 27.9999 2.62508 27.9999H14.875C16.3117 27.9999 17.4924 26.8449 17.5 25.4088C17.5181 22.0105 14.7689 19.2499 11.375 19.2499ZM8.75006 17.4999C11.6496 17.4999 14 15.1495 14 12.25C14 9.35044 11.6496 6.99998 8.75006 6.99998C5.85054 6.99998 3.50008 9.35044 3.50008 12.25C3.50008 15.1495 5.85054 17.4999 8.75006 17.4999ZM32.375 0H11.375C9.92747 0 8.75006 1.21679 8.75006 2.71194V5.24998C10.0308 5.24998 11.2165 5.62076 12.25 6.22342V3.49999H31.5V19.2499H28V15.7499H21V19.2499H16.8307C17.8752 20.1627 18.6419 21.368 19.0012 22.7499H32.375C33.8225 22.7499 35 21.5331 35 20.038V2.71194C35 1.21679 33.8225 0 32.375 0Z" fill="black"/>
</svg>
