<svg width="20" height="20" viewBox="0 0 20 20" fill="none" xmlns="http://www.w3.org/2000/svg">
<path d="M10 1.28359L1.28359 10L10 18.7164L18.7164 10L10 1.28359ZM3.45078 9.99336C3.52734 9.91523 3.91641 9.51289 7.21992 6.18555C8.83906 4.55469 10.5867 4.47578 11.8984 5.45547C12.8605 6.17422 14.3227 7.75625 14.3262 7.76016C14.3527 7.78906 14.368 7.87187 14.3488 7.89219C13.9086 8.35469 13.4629 8.81172 13.0402 9.24727C11.7039 7.98516 11.4574 7.75352 11.1453 7.53047C10.4512 7.03477 9.52812 7.13477 8.91953 7.72969C8.83477 7.81289 8.84961 7.86367 8.92422 7.93867C9.03906 8.05391 10.0219 9.04531 10.2949 9.33633C9.82812 9.78945 9.3707 10.2336 8.90078 10.6902C8.43125 10.2004 7.94453 9.69297 7.47344 9.20156C6.63789 10.0254 5.84492 10.8074 5.05742 11.584C4.52151 11.0541 3.98597 10.5239 3.45078 9.99336ZM12.6234 13.9621C11.2371 15.3461 9.57305 15.452 8.44414 14.7617C7.58164 14.2344 6.90586 13.5086 5.59531 12.1508C6.06602 11.6676 6.52461 11.1969 6.97695 10.7324C8.2668 11.9789 8.42461 12.1391 8.72227 12.3766C9.44414 12.9523 10.3832 12.9105 11.0395 12.3063C11.1832 12.1738 11.1836 12.1641 11.0449 12.0234C10.6313 11.6043 10.2172 11.1859 9.80391 10.7664C9.75234 10.7141 9.68555 10.6695 9.77266 10.5832C10.1941 10.1648 10.6117 9.74258 11.0309 9.32187C11.041 9.31172 11.0562 9.30703 11.1055 9.28008C11.5887 9.78281 12.0789 10.2926 12.5605 10.7938C13.3812 9.98398 14.1715 9.20469 14.9531 8.43359C15.4875 8.95703 16.0129 9.47188 16.5492 9.99726C15.7613 10.8121 13.3586 13.2281 12.6234 13.9621ZM10 0L0 10L10 20L20 10L10 0ZM0.625 10L10 0.625L19.375 10L10 19.375L0.625 10Z" fill="white"/>
</svg>
