<svg width="19" height="24" viewBox="0 0 19 24" fill="none" xmlns="http://www.w3.org/2000/svg">
<path d="M18.7719 14.7745C16.0781 21.4577 9.6246 17.4145 9.6246 17.4145C7.64457 21.4137 4.37384 23.9853 0.599546 24C-0.18758 24 -0.212024 22.8071 0.599546 22.8071C3.74805 22.7924 6.49077 20.7195 8.28502 17.4243C6.27565 18.2017 2.48669 18.7883 0.384431 13.4056C5.71342 11.2104 8.1628 13.9531 9.10148 15.6301C9.58549 14.4372 9.93261 13.1416 10.1575 11.7336C10.1575 11.7336 3.3276 12.8042 2.84848 6.93746C8.67125 4.59564 10.3091 10.6873 10.3091 10.6873C10.3873 9.87085 10.4704 8.11571 10.4704 8.07659C10.4704 8.07659 5.27341 4.47342 8.60769 0C14.6994 2.10226 11.6095 7.9397 11.6095 7.9397C11.634 8.01793 11.634 9.10328 11.6095 9.57262C11.6095 9.57262 13.8193 5.22143 18.2781 6.76146C18.0728 13.3127 11.3406 11.9633 11.3406 11.9633C11.1255 13.3029 10.7931 14.574 10.3628 15.7523C10.3628 15.7523 14.4207 11.2642 18.7719 14.7745Z" fill="black"/>
</svg>
