<svg width="26" height="20" viewBox="0 0 26 20" fill="none" xmlns="http://www.w3.org/2000/svg">
<path d="M12.5186 5.18852L4.28686 11.9683V19.2856C4.28686 19.4751 4.36212 19.6568 4.49609 19.7908C4.63006 19.9247 4.81177 20 5.00123 20L10.0045 19.9871C10.1933 19.9861 10.3741 19.9104 10.5073 19.7766C10.6405 19.6427 10.7153 19.4615 10.7153 19.2727V14.9994C10.7153 14.81 10.7905 14.6283 10.9245 14.4943C11.0585 14.3603 11.2402 14.2851 11.4296 14.2851H14.2871C14.4765 14.2851 14.6582 14.3603 14.7922 14.4943C14.9262 14.6283 15.0014 14.81 15.0014 14.9994V19.2696C15.0012 19.3636 15.0194 19.4567 15.0552 19.5436C15.091 19.6305 15.1435 19.7096 15.2099 19.7761C15.2763 19.8427 15.3551 19.8955 15.4419 19.9316C15.5287 19.9676 15.6218 19.9862 15.7158 19.9862L20.7173 20C20.9067 20 21.0884 19.9247 21.2224 19.7908C21.3564 19.6568 21.4316 19.4751 21.4316 19.2856V11.9634L13.2017 5.18852C13.1049 5.11054 12.9844 5.06801 12.8601 5.06801C12.7359 5.06801 12.6153 5.11054 12.5186 5.18852ZM25.5214 9.79663L21.7888 6.71995V0.535774C21.7888 0.393678 21.7324 0.257402 21.6319 0.156925C21.5314 0.0564476 21.3951 0 21.253 0H18.7528C18.6107 0 18.4744 0.0564476 18.3739 0.156925C18.2734 0.257402 18.217 0.393678 18.217 0.535774V3.77765L14.2197 0.488894C13.8361 0.173224 13.3547 0.000631028 12.8579 0.000631028C12.3611 0.000631028 11.8798 0.173224 11.4961 0.488894L0.194441 9.79663C0.140188 9.84147 0.0953025 9.89656 0.0623489 9.95876C0.0293952 10.0209 0.0090192 10.089 0.00238516 10.1591C-0.00424889 10.2292 0.00298902 10.2999 0.0236853 10.3671C0.0443816 10.4344 0.0781307 10.4969 0.123004 10.5512L1.26152 11.9353C1.30628 11.9897 1.36132 12.0347 1.42351 12.0678C1.48569 12.101 1.5538 12.1215 1.62393 12.1282C1.69406 12.135 1.76483 12.1279 1.83219 12.1072C1.89956 12.0866 1.9622 12.0529 2.01652 12.008L12.5186 3.35796C12.6153 3.27998 12.7359 3.23745 12.8601 3.23745C12.9844 3.23745 13.1049 3.27998 13.2017 3.35796L23.7042 12.008C23.7584 12.0529 23.821 12.0867 23.8882 12.1074C23.9555 12.1281 24.0262 12.1353 24.0963 12.1287C24.1664 12.122 24.2344 12.1016 24.2966 12.0687C24.3588 12.0357 24.4139 11.9909 24.4588 11.9366L25.5973 10.5525C25.6421 10.498 25.6757 10.4351 25.6962 10.3675C25.7166 10.3 25.7235 10.229 25.7165 10.1588C25.7094 10.0886 25.6885 10.0204 25.6551 9.95824C25.6216 9.89609 25.5761 9.84117 25.5214 9.79663Z" fill="black"/>
</svg>
