<svg width="25" height="25" viewBox="0 0 25 25" fill="none" xmlns="http://www.w3.org/2000/svg">
<path d="M17.474 4.03958L21.3889 8.4243C21.5538 8.60903 21.5538 8.91042 21.3889 9.09514L11.9097 19.7118L7.88194 20.2125C7.34375 20.2806 6.88802 19.7701 6.94878 19.1674L7.39583 14.6562L16.875 4.03958C17.0399 3.85486 17.309 3.85486 17.474 4.03958ZM24.5052 2.92639L22.3872 0.554167C21.7274 -0.184722 20.6554 -0.184722 19.9913 0.554167L18.4549 2.275C18.2899 2.45972 18.2899 2.76111 18.4549 2.94583L22.3698 7.33055C22.5347 7.51528 22.8038 7.51528 22.9688 7.33055L24.5052 5.60972C25.1649 4.86597 25.1649 3.66528 24.5052 2.92639ZM16.6667 16.8243V21.7729H2.77778V6.21736H12.7517C12.8906 6.21736 13.0208 6.15417 13.1207 6.04722L14.8568 4.10278C15.1866 3.73333 14.9523 3.10625 14.4878 3.10625H2.08333C0.93316 3.10625 0 4.15139 0 5.43958V22.5507C0 23.8389 0.93316 24.884 2.08333 24.884H17.3611C18.5113 24.884 19.4444 23.8389 19.4444 22.5507V14.8799C19.4444 14.3597 18.8845 14.1021 18.5547 14.4667L16.8186 16.4111C16.7231 16.5229 16.6667 16.6688 16.6667 16.8243Z" fill="black"/>
</svg>
