<svg width="27" height="35" viewBox="0 0 27 35" fill="none" xmlns="http://www.w3.org/2000/svg">
<path d="M22.9688 4.375H17.5C17.5 1.96191 15.5381 0 13.125 0C10.7119 0 8.75 1.96191 8.75 4.375H3.28125C1.46973 4.375 0 5.84473 0 7.65625V31.7188C0 33.5303 1.46973 35 3.28125 35H22.9688C24.7803 35 26.25 33.5303 26.25 31.7188V7.65625C26.25 5.84473 24.7803 4.375 22.9688 4.375ZM6.5625 28.9844C5.65332 28.9844 4.92188 28.2529 4.92188 27.3438C4.92188 26.4346 5.65332 25.7031 6.5625 25.7031C7.47168 25.7031 8.20312 26.4346 8.20312 27.3438C8.20312 28.2529 7.47168 28.9844 6.5625 28.9844ZM6.5625 22.4219C5.65332 22.4219 4.92188 21.6904 4.92188 20.7812C4.92188 19.8721 5.65332 19.1406 6.5625 19.1406C7.47168 19.1406 8.20312 19.8721 8.20312 20.7812C8.20312 21.6904 7.47168 22.4219 6.5625 22.4219ZM6.5625 15.8594C5.65332 15.8594 4.92188 15.1279 4.92188 14.2188C4.92188 13.3096 5.65332 12.5781 6.5625 12.5781C7.47168 12.5781 8.20312 13.3096 8.20312 14.2188C8.20312 15.1279 7.47168 15.8594 6.5625 15.8594ZM13.125 2.73438C14.0342 2.73438 14.7656 3.46582 14.7656 4.375C14.7656 5.28418 14.0342 6.01562 13.125 6.01562C12.2158 6.01562 11.4844 5.28418 11.4844 4.375C11.4844 3.46582 12.2158 2.73438 13.125 2.73438ZM21.875 27.8906C21.875 28.1914 21.6289 28.4375 21.3281 28.4375H11.4844C11.1836 28.4375 10.9375 28.1914 10.9375 27.8906V26.7969C10.9375 26.4961 11.1836 26.25 11.4844 26.25H21.3281C21.6289 26.25 21.875 26.4961 21.875 26.7969V27.8906ZM21.875 21.3281C21.875 21.6289 21.6289 21.875 21.3281 21.875H11.4844C11.1836 21.875 10.9375 21.6289 10.9375 21.3281V20.2344C10.9375 19.9336 11.1836 19.6875 11.4844 19.6875H21.3281C21.6289 19.6875 21.875 19.9336 21.875 20.2344V21.3281ZM21.875 14.7656C21.875 15.0664 21.6289 15.3125 21.3281 15.3125H11.4844C11.1836 15.3125 10.9375 15.0664 10.9375 14.7656V13.6719C10.9375 13.3711 11.1836 13.125 11.4844 13.125H21.3281C21.6289 13.125 21.875 13.3711 21.875 13.6719V14.7656Z" fill="black"/>
</svg>
