<svg width="35" height="27" viewBox="0 0 35 27" fill="none" xmlns="http://www.w3.org/2000/svg">
<path d="M31.7188 4.375H18.5938L14.2188 0H3.28125C1.46904 0 0 1.46904 0 3.28125V22.9688C0 24.781 1.46904 26.25 3.28125 26.25H31.7188C33.531 26.25 35 24.781 35 22.9688V7.65625C35 5.84404 33.531 4.375 31.7188 4.375ZM25.1562 15.8594C25.1562 16.4637 24.6668 16.9531 24.0625 16.9531H19.1406V21.875C19.1406 22.4793 18.6512 22.9688 18.0469 22.9688H16.9531C16.3488 22.9688 15.8594 22.4793 15.8594 21.875V16.9531H10.9375C10.3332 16.9531 9.84375 16.4637 9.84375 15.8594V14.7656C9.84375 14.1613 10.3332 13.6719 10.9375 13.6719H15.8594V8.75C15.8594 8.1457 16.3488 7.65625 16.9531 7.65625H18.0469C18.6512 7.65625 19.1406 8.1457 19.1406 8.75V13.6719H24.0625C24.6668 13.6719 25.1562 14.1613 25.1562 14.7656V15.8594Z" fill="black"/>
</svg>
