<svg width="69" height="46" viewBox="0 0 69 46" fill="none" xmlns="http://www.w3.org/2000/svg">
<path d="M2.28061 5.03027L33.6546 0.104256C35.3642 -0.164176 37.1311 0.0890293 38.6954 0.826662L67.4242 14.3661C69.8486 15.5085 69.368 18.8622 66.7203 19.2776L61.2506 20.1363C62.1965 21.7221 62.6548 23.5568 62.4528 25.465C63.405 26.2084 63.9817 27.3861 63.7981 28.667C63.6316 29.8284 62.8797 30.7178 61.9089 31.2164L62.8856 43.9868C62.9706 45.0974 62.0054 46.0013 60.9033 45.8434L54.8585 44.9771C53.7553 44.819 53.0829 43.6803 53.4763 42.6384L58.0004 30.6562C57.2087 29.9051 56.7368 28.8403 56.9032 27.6789C57.0818 26.4325 57.9283 25.4895 59.0052 25.0259C59.1552 23.3961 58.5328 21.8468 57.3431 20.7506L35.3462 24.2047C34.3272 24.3643 32.4012 24.4698 30.3054 23.4823L1.57658 9.94286C-0.848737 8.79929 -0.368265 5.44666 2.28061 5.03027ZM28.8204 26.6327C31.7587 28.0169 34.4524 27.8708 35.8865 27.6454L52.1977 25.0849L51.9736 37.5272C51.4278 41.3355 41.7248 43.0949 30.3009 41.4577C18.877 39.8205 10.0586 35.4068 10.6044 31.5985L13.8839 19.593L28.8204 26.6327Z" fill="black"/>
</svg>
