<svg width="35" height="30" viewBox="0 0 35 30" fill="none" xmlns="http://www.w3.org/2000/svg">
<path d="M34.2054 6.73944L30.5175 0.852374C30.1879 0.323902 29.6026 0 28.9775 0H6.02024C5.39517 0 4.80987 0.323902 4.48029 0.852374L0.79235 6.73944C-1.11128 9.77957 0.576416 14.0073 4.13366 14.4904C4.38937 14.5244 4.65076 14.5415 4.91216 14.5415C6.59417 14.5415 8.08299 13.8028 9.10584 12.6606C10.1287 13.8028 11.6232 14.5415 13.2995 14.5415C14.9815 14.5415 16.4703 13.8028 17.4932 12.6606C18.516 13.8028 20.0105 14.5415 21.6869 14.5415C23.3689 14.5415 24.8577 13.8028 25.8806 12.6606C26.9091 13.8028 28.3979 14.5415 30.0742 14.5415C30.3413 14.5415 30.597 14.5244 30.8527 14.4904C34.4213 14.013 36.1147 9.78525 34.2054 6.73944ZM30.0856 16.3656C29.5173 16.3656 28.9548 16.2803 28.4093 16.1496V21.8208H6.58849V16.1496C6.04297 16.2747 5.48041 16.3656 4.91216 16.3656C4.57121 16.3656 4.22458 16.3428 3.88931 16.2974C3.57109 16.2519 3.25855 16.1781 2.95738 16.0928V27.276C2.95738 28.2818 3.76998 29.0944 4.77578 29.0944H30.2333C31.2391 29.0944 32.0517 28.2818 32.0517 27.276V16.0928C31.7449 16.1837 31.438 16.2576 31.1198 16.2974C30.7732 16.3428 30.4322 16.3656 30.0856 16.3656Z" fill="black"/>
</svg>
