<svg width="35" height="35" viewBox="0 0 35 35" fill="none" xmlns="http://www.w3.org/2000/svg">
<g clip-path="url(#clip0_8_21)">
<path d="M11.0141 24.7893C10.42 24.1953 10.7297 24.3628 9.29689 23.9793C8.64679 23.805 8.07531 23.47 7.55851 23.0687L4.45704 30.673C4.15695 31.4093 4.71749 32.2091 5.51183 32.179L9.11368 32.0416L11.591 34.6584C12.1379 35.2353 13.0977 35.0556 13.3978 34.3193L16.9559 25.5953C16.2149 26.0082 15.3925 26.2502 14.5421 26.2502C13.2091 26.2502 11.9568 25.7313 11.0141 24.7893ZM30.543 30.673L27.4415 23.0687C26.9247 23.4707 26.3532 23.805 25.7031 23.9793C24.2628 24.3648 24.5786 24.1967 23.986 24.7893C23.0433 25.7313 21.7902 26.2502 20.4572 26.2502C19.6068 26.2502 18.7845 26.0075 18.0435 25.5953L21.6016 34.3193C21.9017 35.0556 22.8621 35.2353 23.4083 34.6584L25.8863 32.0416L29.4882 32.179C30.2825 32.2091 30.8431 31.4086 30.543 30.673ZM22.3535 23.2424C23.3981 22.1794 23.5177 22.271 25.0052 21.8656C25.9547 21.6065 26.6971 20.8512 26.9514 19.8846C27.4627 17.9432 27.3301 18.1776 28.7253 16.7571C29.4205 16.0496 29.6919 15.0181 29.4376 14.0515C28.927 12.1114 28.9263 12.3821 29.4376 10.44C29.6919 9.47343 29.4205 8.44188 28.7253 7.73436C27.3301 6.31386 27.4627 6.54765 26.9514 4.60692C26.6971 3.64032 25.9547 2.88495 25.0052 2.62587C23.0993 2.10565 23.329 2.24169 21.9324 0.820498C21.2372 0.112978 20.2234 -0.163878 19.2739 0.0952045C17.3688 0.614736 17.6347 0.615419 15.7261 0.0952045C14.7766 -0.163878 13.7628 0.112294 13.0676 0.820498C11.6724 2.24101 11.9021 2.10565 9.99552 2.62587C9.04601 2.88495 8.30363 3.64032 8.04933 4.60692C7.53868 6.54765 7.67062 6.31386 6.2754 7.73436C5.58019 8.44188 5.30812 9.47343 5.5631 10.44C6.07374 12.3787 6.07443 12.108 5.5631 14.0508C5.3088 15.0174 5.58019 16.0489 6.2754 16.7571C7.67062 18.1776 7.538 17.9432 8.04933 19.8846C8.30363 20.8512 9.04601 21.6065 9.99552 21.8656C11.5254 22.2826 11.6396 22.217 12.6465 23.2424C13.5509 24.1632 14.9598 24.3279 16.0467 23.6402C16.4813 23.3643 16.9855 23.2178 17.5004 23.2178C18.0152 23.2178 18.5194 23.3643 18.954 23.6402C20.0402 24.3279 21.4491 24.1632 22.3535 23.2424ZM11.051 12.0287C11.051 8.4036 13.9385 5.46483 17.5 5.46483C21.0615 5.46483 23.949 8.4036 23.949 12.0287C23.949 15.6538 21.0615 18.5926 17.5 18.5926C13.9385 18.5926 11.051 15.6538 11.051 12.0287Z" fill="black"/>
<g clip-path="url(#clip1_8_21)">
<path d="M18 3.28125C13.1836 3.28125 9.28125 7.18359 9.28125 12C9.28125 16.8164 13.1836 20.7188 18 20.7188C22.8164 20.7188 26.7188 16.8164 26.7188 12C26.7188 7.18359 22.8164 3.28125 18 3.28125ZM22.0676 12.8438L15.8801 16.3945C15.3246 16.7039 14.625 16.3066 14.625 15.6562V8.34375C14.625 7.69688 15.3211 7.29609 15.8801 7.60547L22.0676 11.3672C22.6441 11.6906 22.6441 12.5238 22.0676 12.8438Z" fill="black"/>
</g>
</g>
<defs>
<clipPath id="clip0_8_21">
<rect width="35" height="35" fill="white"/>
</clipPath>
<clipPath id="clip1_8_21">
<rect width="18" height="18" fill="white" transform="translate(9 3)"/>
</clipPath>
</defs>
</svg>
